# AST/ASF file generated using VICON BodyLanguage
# -----------------------------------------------
:version 1.10
:name VICON
:units
  mass 1.0
  length 0.45
  angle deg
:documentation
   .ast/.asf automatically generated from VICON data using
   VICON BodyBuilder and BodyLanguage model FoxedUp or BRILLIANT.MOD
:root
   order TX TY TZ RX RY RZ
   axis XYZ
   position 0 0 0  
   orientation 0 0 0 
:bonedata
  begin
     id 1 
     name lhipjoint
     direction 0.627457 -0.725269 0.283342 
     length 2.53237 
     axis 0 0 0  XYZ
  end
  begin
     id 2 
     name lfemur
     direction 0.34202 -0.939693 0  
     length 7.32496  
     axis 0 0 20  XYZ
    dof rx ry rz
    limits (-160.0 20.0)
           (-70.0 70.0)
           (-60.0 70.0)
  end
  begin
     id 3 
     name ltibia
     direction 0.34202 -0.939693 0   
     length 7.69674   
     axis 0 0 20   XYZ
    dof rx
    limits (-10.0 170.0)
  end
  begin
     id 4 
     name lfoot
     direction 0.127289 -0.349722 0.928166   
     length 1.8612   
     axis -90 7.62852e-016 20   XYZ
    dof rx rz
    limits (-45.0 90.0)
           (-70.0 20.0)
  end
  begin
     id 5 
     name ltoes
     direction 1.53561e-011 -4.21864e-011 1   
     length 0.925608   
     axis -90 7.62852e-016 20   XYZ
    dof rx
    limits (-90.0 20.0)
  end
  begin
     id 6 
     name rhipjoint
     direction -0.609094 -0.738725 0.288599   
     length 2.48624  
     axis 0 0 0  XYZ 
  end
  begin
     id 7 
     name rfemur
     direction -0.34202 -0.939693 0   
     length 7.44259   
     axis 0 0 -20   XYZ
    dof rx ry rz
    limits (-160.0 20.0)
           (-70.0 70.0)
           (-70.0 60.0)
  end
  begin
     id 8 
     name rtibia
     direction -0.34202 -0.939693 0   
     length 7.7781   
     axis 0 0 -20   XYZ
    dof rx
    limits (-10.0 170.0)
 end
 begin
     id 9 
     name rfoot
     direction -0.107015 -0.294021 0.949789   
     length 2.14741  
     axis -90 -7.62852e-016 -20   XYZ
    dof rx rz
    limits (-45.0 90.0)
           (-20.0 70.0)
  end
  begin
     id 10 
     name rtoes
     direction -1.53497e-011 -4.21924e-011 1   
     length 1.0706   
     axis -90 -7.62852e-016 -20   XYZ
    dof rx
    limits (-90.0 20.0)
  end
  begin
     id 11 
     name lowerback
     direction -0.0142066 0.998112 -0.0597545   
     length 1.86627   
     axis 0 0 0   XYZ
    dof rx ry rz
    limits (-20.0 45.0)
           (-30.0 30.0)
           (-30.0 30.0)
  end
  begin
     id 12 
     name upperback
     direction 0.00547294 0.999744 0.0219437   
     length 1.86272   
     axis 0 0 0   XYZ
    dof rx ry rz
    limits (-20.0 45.0)
           (-30.0 30.0)
           (-30.0 30.0)
  end
  begin
     id 13 
     name thorax
     direction 0.0116162 0.998704 0.0495538   
     length 1.8703   
     axis 0 0 0   XYZ
    dof rx ry rz
    limits (-20.0 45.0)
           (-30.0 30.0)
           (-30.0 30.0)
  end
  begin
     id 14 
     name lowerneck
     direction -0.0106574 0.998739 0.0490586   
     length 1.8074   
     axis 0 0 0   XYZ
    dof rx ry rz
    limits (-20.0 45.0)
           (-30.0 30.0)
           (-30.0 30.0)
  end
  begin
     id 15 
     name upperneck
     direction 0.030527 0.976587 -0.212944   
     length 1.80681   
     axis 0 0 0   XYZ
    dof rx ry rz
    limits (-20.0 45.0)
           (-30.0 30.0)
           (-30.0 30.0)
  end
  begin
     id 16
     name head
     direction 0.00869225 0.997035 -0.0764531  
     length 1.8313  
     axis 0 0 0   XYZ
    dof rx ry rz
    limits (-20.0 45.0)
           (-30.0 30.0)
           (-30.0 30.0)
  end
  begin
     id 17 
     name lclavicle
     direction 0.915958 0.399447 0.0382386  
     length 3.78965  
     axis 0 0 0   XYZ
    dof ry rz
    limits (-20.0 10.0)
           (0.0 20.0)
  end
  begin
     id 18 
     name lhumerus
     direction 1 -4.48967e-011 3.19303e-027   
     length 4.78095   
     axis -180 -30 -90   XYZ
    dof rx ry rz
    limits (-60.0 90.0)
           (-90.0 90.0)
           (-90.0 90.0)
  end
  begin
     id 19
     name lradius
     direction 1 -4.48967e-011 -3.77974e-027   
     length 3.58615   
     axis -180 -30 -90   XYZ
    dof rx
    limits (-10.0 170.0)
  end
  begin
     id 20
     name lwrist
     direction 1 -4.48927e-011 1.2807e-027   
     length 1.79307   
     axis 1.91374e-015 90 90   XYZ
    dof ry
    limits (-180.0 0.0)
 end
  begin
     id 21 
     name lhand
     direction 1 -4.49036e-011 2.5614e-027   
     length 0.659812   
     axis -1.63439e-015 90 90   XYZ
    dof rx rz
    limits (-90.0 90.0)
           (-45.0 45.0)
  end
  begin
     id 22 
     name lfingers
     direction 1 -4.49052e-011 5.1228e-027   
     length 0.531957   
     axis -3.26879e-015 90 90   XYZ
    dof rx
    limits (0.0 90.0)
  end
  begin
     id 23
     name lthumb
     direction 0.707107 -6.35012e-011 0.707107   
     length 0.763787   
     axis -90 45 2.85299e-015   XYZ
    dof rx rz
    limits (-45.0 45.0)
           (-45.0 45.0)
  end
  begin
     id 24 
     name rclavicle
     direction -0.895351 0.435135 0.0948887   
     length 3.70497  
     axis 0 0 0   XYZ 
    dof ry rz
    limits (-10.0 20.0)
           (-20.0 0.0)
  end
  begin
     id 25 
     name rhumerus
     direction -1 -4.48971e-011 2.38946e-027  
     length 4.48913   
     axis -180 30 90   XYZ
    dof rx ry rz
    limits (-90.0 60.0)
           (-90.0 90.0)
           (-90.0 90.0)
  end
  begin
     id 26 
     name rradius
     direction -1 -4.4895e-011 4.38668e-027   
     length 3.7051   
     axis -180 30 90   XYZ
    dof rx
    limits (-10.0 170.0)
  end
  begin
     id 27 
     name rwrist
     direction -1 -4.49007e-011 1.2807e-027   
     length 1.85255   
     axis 1.91374e-015 -90 -90   XYZ
    dof ry
    limits (-180.0 0.0)
  end
  begin
     id 28
     name rhand
     direction -1 -4.48851e-011 2.5614e-027   
     length 0.449136   
     axis -1.63439e-015 -90 -90   XYZ
    dof rx rz
    limits (-90.0 90.0)
           (-45.0 45.0)
  end
  begin
     id 29
     name rfingers
     direction -1 -4.49128e-011 5.1228e-027   
     length 0.362105   
     axis -3.26879e-015 -90 -90   XYZ
    dof rx
    limits (0.0 90.0)
  end
  begin
     id 30
     name rthumb
     direction -0.707107 -6.34851e-011 0.707107   
     length 0.519912   
     axis -90 -45 -2.85299e-015   XYZ
    dof rx rz
    limits (-45.0 45.0)
           (-45.0 45.0)
  end
:hierarchy
  begin
    root lhipjoint rhipjoint lowerback
    lhipjoint lfemur
    lfemur ltibia
    ltibia lfoot
    lfoot ltoes
    rhipjoint rfemur
    rfemur rtibia
    rtibia rfoot
    rfoot rtoes
    lowerback upperback
    upperback thorax
    thorax lowerneck lclavicle rclavicle
    lowerneck upperneck
    upperneck head
    lclavicle lhumerus
    lhumerus lradius
    lradius lwrist
    lwrist lhand lthumb
    lhand lfingers
    rclavicle rhumerus
    rhumerus rradius
    rradius rwrist
    rwrist rhand rthumb
    rhand rfingers
  end

#!OML:ASF I:\Actors\actors\Patient Classification 2\Patient 1\Session 1\actor1.ASF
:FULLY-SPECIFIED
:DEGREES
78
root -0.74102 18.6609 5.95674 1.22723 -2.96262 -1.99518
lowerback 4.45151 0.808165 -1.6809
upperback -1.75905 1.00393 0.70761
thorax -4.35635 0.55593 1.59226
lowerneck -13.2729 2.73203 3.65877
upperneck 22.991 2.92228 0.185526
head 9.50214 1.70065 -0.198643
rclavicle -1.82028e-014 -2.38542e-015
rhumerus -39.8091 15.1061 -91.983
rradius 31.7735
rwrist -4.22823
rhand -3.74403 -38.068
rfingers 7.12502
rthumb 21.9997 -66.8369
lclavicle -1.82028e-014 -2.38542e-015
lhumerus -43.6021 4.10989 86.1862
lradius 41.7344
lwrist -6.53596
lhand 1.32414 -23.7368
lfingers 7.12502
lthumb 26.858 4.37547
rfemur 7.66598 3.1545 15.68
rtibia 7.95139e-015
rfoot -16.0283 -9.47377
rtoes -11.0924
lfemur -4.16724 -3.29608 -12.3749
ltibia 22.4371
lfoot -21.9734 11.4942
ltoes -56.1003
79
root -0.740456 18.6615 5.95521 1.21852 -2.95265 -1.96477
lowerback 4.44526 0.798008 -1.7125
upperback -1.74616 0.988103 0.697015
thorax -4.33914 0.548535 1.60052
lowerneck -13.2401 2.74528 3.71053
upperneck 22.9727 2.93999 0.145009
head 9.49151 1.70877 -0.219694
rclavicle -3.97725e-015 -3.37934e-015
rhumerus -39.7984 15.1216 -91.9805
rradius 31.7626
rwrist -4.27003
rhand -3.66856 -38.0617
rfingers 7.12502
rthumb 22.0722 -66.822
lclavicle -3.97725e-015 -3.37934e-015
lhumerus -43.5798 4.21167 86.1338
lradius 41.6953
lwrist -6.62441
lhand 1.36223 -23.8382
lfingers 7.12502
lthumb 26.8945 4.26844
rfemur 7.67244 3.14514 15.643
rtibia 3.49861e-014
rfoot -16.0167 -9.49897
rtoes -11.1843
lfemur -4.16302 -3.33746 -12.4161
ltibia 22.4311
lfoot -21.9546 11.5168
ltoes -56.1097
80
root -0.740358 18.6617 5.95371 1.21872 -2.95461 -1.95508
lowerback 4.44745 0.800799 -1.71092
upperback -1.74628 0.991252 0.681503
thorax -4.34032 0.549833 1.5833
lowerneck -13.2083 2.74575 3.73659
upperneck 22.9617 2.93702 0.140541
head 9.4822 1.70913 -0.226467
rclavicle -1.20544e-014 -3.37934e-015
rhumerus -39.8098 15.1296 -92.0015
rradius 31.7551
rwrist -4.34748
rhand -3.6923 -38.0426
rfingers 7.12502
rthumb 22.0494 -66.8056
lclavicle -1.20544e-014 -3.37934e-015
lhumerus -43.6057 4.22209 86.1122
lradius 41.7154
lwrist -6.65782
lhand 1.39196 -23.901
lfingers 7.12502
lthumb 26.9229 4.20135
rfemur 7.66329 3.14678 15.6337
rtibia 4.77083e-015
rfoot -16.0105 -9.50671
rtoes -11.0208
lfemur -4.16654 -3.36539 -12.4305
ltibia 22.4271
lfoot -21.9578 11.5085
ltoes -56.0466
81
root -0.740877 18.6621 5.95194 1.24919 -2.96252 -1.98445
lowerback 4.43522 0.807178 -1.68123
upperback -1.75769 1.00156 0.676504
thorax -4.345 0.554187 1.56068
lowerneck -13.2436 2.73782 3.69596
upperneck 23.0177 2.91535 0.215667
head 9.50631 1.70424 -0.195511
rclavicle -1.09642e-014 3.57812e-015
rhumerus -39.8154 15.0947 -92.0261
rradius 31.7296
rwrist -4.38635
rhand -3.74348 -38.0181
rfingers 7.12502
rthumb 22.0003 -66.7869
lclavicle -1.09642e-014 3.57812e-015
lhumerus -43.6948 4.0463 86.1691
lradius 41.8641
lwrist -6.50647
lhand 1.39493 -23.7815
lfingers 7.12502
lthumb 26.9258 4.32035
rfemur 7.61905 3.15235 15.6693
rtibia 2.54444e-014
rfoot -16.0191 -9.47285
rtoes -10.5905
lfemur -4.20389 -3.36681 -12.394
ltibia 22.4257
lfoot -21.9774 11.4966
ltoes -55.99
82
root -0.741786 18.6626 5.95042 1.28514 -2.94964 -2.00551
lowerback 4.41195 0.805124 -1.67189
upperback -1.76618 0.999837 0.678898
thorax -4.34043 0.55314 1.55829
lowerneck -13.2859 2.72748 3.62162
upperneck 23.0658 2.89397 0.306993
head 9.52802 1.6983 -0.153234
rclavicle 5.26469e-016 -6.95746e-015
rhumerus -39.8129 15.0458 -92.0134
rradius 31.7077
rwrist -4.35869
rhand -3.68448 -37.9483
rfingers 7.12502
rthumb 22.0569 -66.7104
lclavicle 5.26469e-016 -6.95746e-015
lhumerus -43.7347 3.95265 86.2013
lradius 41.9647
lwrist -6.40806
lhand 1.4041 -23.5638
lfingers 7.12502
lthumb 26.9346 4.53673
rfemur 7.58033 3.13687 15.6938
rtibia -7.95139e-015
rfoot -16.0354 -9.43333
rtoes -10.3701
lfemur -4.2517 -3.35451 -12.3591
ltibia 22.4293
lfoot -21.9939 11.4738
ltoes -55.9921
83
root -0.741977 18.6626 5.94938 1.28562 -2.92688 -1.99993
lowerback 4.41724 0.800724 -1.68122
upperback -1.76369 0.993384 0.680662
thorax -4.34079 0.550205 1.56583
lowerneck -13.2877 2.71586 3.57782
upperneck 23.062 2.88065 0.33674
head 9.52548 1.69158 -0.137289
rclavicle -2.62147e-015 9.34288e-015
rhumerus -39.8027 15.0007 -91.9722
rradius 31.6867
rwrist -4.32665
rhand -3.60775 -37.8458
rfingers 7.12502
rthumb 22.1306 -66.5992
lclavicle -2.62147e-015 9.34288e-015
lhumerus -43.7302 3.96896 86.2034
lradius 42.005
lwrist -6.40664
lhand 1.43226 -23.3894
lfingers 7.12502
lthumb 26.9615 4.70691
rfemur 7.58493 3.1141 15.6876
rtibia 3.18055e-015
rfoot -16.0238 -9.4386
rtoes -10.6061
lfemur -4.26113 -3.36393 -12.3603
ltibia 22.4345
lfoot -21.9999 11.4833
ltoes -55.9897
84
root -0.741529 18.6623 5.94791 1.26502 -2.91471 -1.9852
lowerback 4.45522 0.800125 -1.68881
upperback -1.76045 0.991274 0.674524
thorax -4.3589 0.549397 1.56348
lowerneck -13.2929 2.70417 3.55638
upperneck 23.0702 2.86281 0.362042
head 9.52824 1.6843 -0.127021
rclavicle 1.96455e-014 -3.97569e-015
rhumerus -39.8191 14.9696 -91.9594
rradius 31.6954
rwrist -4.29899
rhand -3.60428 -37.7745
rfingers 7.12502
rthumb 22.1339 -66.5275
lclavicle 1.96455e-014 -3.97569e-015
lhumerus -43.7303 3.9666 86.2149
lradius 42.0208
lwrist -6.39314
lhand 1.42794 -23.2723
lfingers 7.12502
lthumb 26.9574 4.82468
rfemur 7.60166 3.10331 15.6724
rtibia -4.77083e-015
rfoot -16.0059 -9.47213
rtoes -10.8789
lfemur -4.24312 -3.39746 -12.3799
ltibia 22.4362
lfoot -22.0116 11.5037
ltoes -55.9375
85
root -0.741138 18.6622 5.94632 1.25035 -2.91214 -2.0011
lowerback 4.49164 0.797 -1.6713
upperback -1.76289 0.987533 0.672547
thorax -4.38156 0.547225 1.55146
lowerneck -13.3216 2.70336 3.5389
upperneck 23.118 2.84896 0.424428
head 9.5491 1.68361 -0.103461
rclavicle 9.78704e-015 2.5842e-015
rhumerus -39.8645 14.9648 -91.9841
rradius 31.723
rwrist -4.26699
rhand -3.57209 -37.8265
rfingers 7.12502
rthumb 22.1648 -66.5759
lclavicle 9.78704e-015 2.5842e-015
lhumerus -43.7364 3.95847 86.217
lradius 42.0034
lwrist -6.35193
lhand 1.36911 -23.188
lfingers 7.12502
lthumb 26.9011 4.91767
rfemur 7.6125 3.10216 15.6903
rtibia -1.27222e-014
rfoot -16.0258 -9.47662
rtoes -10.8488
lfemur -4.2255 -3.41203 -12.3631
ltibia 22.4348
lfoot -22.0196 11.4956
ltoes -55.9041
86
root -0.740268 18.6623 5.94586 1.24355 -2.9108 -2.02588
lowerback 4.50143 0.790827 -1.64467
upperback -1.76082 0.981137 0.680363
thorax -4.38434 0.543423 1.54501
lowerneck -13.3344 2.70712 3.52925
upperneck 23.1377 2.84822 0.455196
head 9.55787 1.68598 -0.0909665
rclavicle 1.06365e-014 -3.97569e-015
rhumerus -39.884 14.9755 -91.9936
rradius 31.7256
rwrist -4.26844
rhand -3.56984 -37.908
rfingers 7.12502
rthumb 22.167 -66.6571
lclavicle 1.06365e-014 -3.97569e-015
lhumerus -43.7494 3.98581 86.2118
lradius 41.9831
lwrist -6.32489
lhand 1.33354 -23.1519
lfingers 7.12502
lthumb 26.867 4.95897
rfemur 7.62473 3.10223 15.7128
rtibia -2.54444e-014
rfoot -16.0522 -9.45069
rtoes -10.694
lfemur -4.21861 -3.40363 -12.3386
ltibia 22.436
lfoot -22.0175 11.4969
ltoes -55.9136
87
root -0.739646 18.6623 5.94544 1.23862 -2.90843 -2.02216
lowerback 4.50624 0.788475 -1.64457
upperback -1.75678 0.977992 0.681643
thorax -4.38276 0.541831 1.54651
lowerneck -13.3208 2.70492 3.5282
upperneck 23.1173 2.84747 0.449279
head 9.54813 1.68473 -0.09329
rclavicle -1.5763e-015 -2.5842e-015
rhumerus -39.8979 14.9916 -92.0044
rradius 31.7402
rwrist -4.32141
rhand -3.69313 -37.8678
rfingers 7.12502
rthumb 22.0486 -66.6309
lclavicle -1.5763e-015 -2.5842e-015
lhumerus -43.7778 4.0054 86.2066
lradius 41.9765
lwrist -6.34926
lhand 1.33157 -23.1648
lfingers 7.12502
lthumb 26.8652 4.94645
rfemur 7.63064 3.10048 15.7057
rtibia -1.59028e-014
rfoot -16.0517 -9.4458
rtoes -10.5585
lfemur -4.21568 -3.40221 -12.3455
ltibia 22.4397
lfoot -22.0242 11.4896
ltoes -55.8839
88
root -0.739721 18.662 5.94398 1.23272 -2.89872 -2.01839
lowerback 4.5289 0.788553 -1.64102
upperback -1.75963 0.977523 0.670986
thorax -4.39829 0.541485 1.53325
lowerneck -13.3054 2.70098 3.54575
upperneck 23.1106 2.83946 0.445231
head 9.54317 1.68205 -0.0988694
rclavicle 6.13437e-015 -2.5842e-015
rhumerus -39.9178 14.9245 -92.0047
rradius 31.7627
rwrist -4.29734
rhand -3.72073 -37.8225
rfingers 7.12502
rthumb 22.0221 -66.5888
lclavicle 6.13437e-015 -2.5842e-015
lhumerus -43.7897 4.01304 86.1901
lradius 41.9248
lwrist -6.36807
lhand 1.28196 -23.2354
lfingers 7.12502
lthumb 26.8177 4.88307
rfemur 7.62846 3.09092 15.7049
rtibia -2.22639e-014
rfoot -16.0302 -9.47509
rtoes -10.6491
lfemur -4.21647 -3.38985 -12.3446
ltibia 22.4435
lfoot -22.0144 11.4572
ltoes -55.8632
89
root -0.73929 18.662 5.94242 1.23533 -2.89347 -2.02742
lowerback 4.53817 0.79056 -1.62201
upperback -1.76131 0.981106 0.667336
thorax -4.405 0.542739 1.51837
lowerneck -13.269 2.69487 3.56083
upperneck 23.08 2.83187 0.433565
head 9.52583 1.67834 -0.107106
rclavicle -6.1732e-015 3.57812e-015
rhumerus -39.9192 14.8198 -91.965
rradius 31.7666
rwrist -4.22939
rhand -3.56627 -37.8141
rfingers 7.12502
rthumb 22.1704 -66.5628
lclavicle -6.1732e-015 3.57812e-015
lhumerus -43.7826 3.99801 86.2056
lradius 41.8676
lwrist -6.2923
lhand 1.23494 -23.2763
lfingers 7.12502
lthumb 26.7727 4.84908
rfemur 7.61813 3.0857 15.7141
rtibia -2.70347e-014
rfoot -16.0283 -9.4871
rtoes -10.7462
lfemur -4.22828 -3.37437 -12.3314
ltibia 22.4457
lfoot -22.014 11.4286
ltoes -55.8704
90
root -0.738823 18.6621 5.94103 1.24119 -2.90839 -2.06203
lowerback 4.54118 0.796438 -1.58677
upperback -1.76059 0.991691 0.680582
thorax -4.40597 0.547204 1.51136
lowerneck -13.2445 2.68275 3.55116
upperneck 23.0544 2.81877 0.431539
head 9.51181 1.67101 -0.108345
rclavicle -1.03011e-014 -3.77691e-015
rhumerus -39.9277 14.8186 -91.9608
rradius 31.7708
rwrist -4.25929
rhand -3.51707 -37.7601
rfingers 7.12502
rthumb 22.2176 -66.5032
lclavicle -1.03011e-014 -3.77691e-015
lhumerus -43.7949 3.9833 86.2326
lradius 41.8643
lwrist -6.24056
lhand 1.21364 -23.27
lfingers 7.12502
lthumb 26.7523 4.85847
rfemur 7.60827 3.10092 15.7489
rtibia 1.43125e-014
rfoot -16.0359 -9.47875
rtoes -10.6358
lfemur -4.23351 -3.36359 -12.2916
ltibia 22.4474
lfoot -22.0279 11.4106
ltoes -55.8482
91
root -0.739055 18.6625 5.93978 1.24315 -2.93434 -2.07864
lowerback 4.54891 0.803414 -1.5774
upperback -1.7607 1.00171 0.685871
thorax -4.41078 0.552032 1.51063
lowerneck -13.2671 2.67078 3.54477
upperneck 23.0808 2.80205 0.432767
head 9.52491 1.66296 -0.108374
rclavicle 2.98332e-015 5.96354e-015
rhumerus -39.9561 14.8947 -92.0186
rradius 31.7939
rwrist -4.34034
rhand -3.65076 -37.7608
rfingers 7.12502
rthumb 22.0893 -66.5191
lclavicle 2.98332e-015 5.96354e-015
lhumerus -43.7906 4.02112 86.2145
lradius 41.8294
lwrist -6.28147
lhand 1.16721 -23.3042
lfingers 7.12502
lthumb 26.7079 4.83114
rfemur 7.60128 3.12678 15.7679
rtibia -3.18055e-015
rfoot -16.0272 -9.48306
rtoes -10.6083
lfemur -4.23066 -3.36126 -12.274
ltibia 22.4489
lfoot -22.0289 11.4299
ltoes -55.8408
